<svg xmlns="http://www.w3.org/2000/svg" xmlns:xlink="http://www.w3.org/1999/xlink" width="500" zoomAndPan="magnify" viewBox="0 0 375 374.999991" height="500" preserveAspectRatio="xMidYMid meet" version="1.0"><defs><clipPath id="06be7f55ec"><path d="M 156 78.515625 L 182 78.515625 L 182 139 L 156 139 Z M 156 78.515625 " clip-rule="nonzero"/></clipPath><clipPath id="0bdb05f2fb"><path d="M 190 78.515625 L 216 78.515625 L 216 139 L 190 139 Z M 190 78.515625 " clip-rule="nonzero"/></clipPath><clipPath id="d1312ee360"><path d="M 244 121 L 310.929688 121 L 310.929688 294 L 244 294 Z M 244 121 " clip-rule="nonzero"/></clipPath><clipPath id="e6c9c39ba4"><path d="M 64.179688 176 L 241 176 L 241 214 L 64.179688 214 Z M 64.179688 176 " clip-rule="nonzero"/></clipPath><clipPath id="c3dc8a085f"><path d="M 176 280 L 197 280 L 197 296.765625 L 176 296.765625 Z M 176 280 " clip-rule="nonzero"/></clipPath></defs><rect x="-37.5" width="450" fill="#ffffff" y="-37.499999" height="449.999989" fill-opacity="1"/><rect x="-37.5" width="450" fill="#fbfff3" y="-37.499999" height="449.999989" fill-opacity="1"/><path fill="#ffb200" d="M 157.808594 194.558594 C 153.5625 181.382812 161.835938 160.808594 181.089844 155.464844 C 167.035156 156.121094 148.804688 170.984375 154.367188 195.21875 C 152.464844 195.804688 150.488281 196.464844 148.582031 197.050781 C 144.703125 186.800781 146.019531 169.742188 159.054688 157.367188 C 171.792969 145.289062 192 143.238281 206.640625 152.609375 C 222.601562 162.785156 228.09375 180.648438 223.773438 195.949219 C 201.957031 189.363281 179.917969 188.777344 157.808594 194.558594 Z M 157.808594 194.558594 " fill-opacity="1" fill-rule="nonzero"/><path fill="#ffb200" d="M 144.191406 160.808594 C 127.71875 150.632812 111.171875 140.457031 94.257812 129.984375 C 98.796875 123.980469 103.117188 118.34375 107.585938 112.488281 C 121.714844 126.324219 135.625 139.941406 149.460938 153.488281 C 147.707031 156.050781 146.019531 158.320312 144.191406 160.808594 Z M 144.191406 160.808594 " fill-opacity="1" fill-rule="nonzero"/><path fill="#ffb200" d="M 86.132812 146.457031 C 104.144531 154.4375 122.082031 162.347656 140.019531 170.253906 C 139.359375 172.890625 138.699219 175.378906 138.042969 178.085938 C 118.859375 174.644531 99.605469 171.277344 80.421875 167.835938 C 80.277344 163.808594 83.277344 152.460938 86.132812 146.457031 Z M 86.132812 146.457031 " fill-opacity="1" fill-rule="nonzero"/><path fill="#ffb200" d="M 121.714844 100.480469 C 127.71875 96.746094 133.5 93.160156 139.503906 89.425781 C 147.925781 107.214844 156.050781 124.566406 164.324219 141.992188 C 161.761719 143.53125 159.492188 144.996094 157.078125 146.457031 C 145.363281 131.304688 133.722656 116.148438 121.714844 100.480469 Z M 121.714844 100.480469 " fill-opacity="1" fill-rule="nonzero"/><path fill="#ffb200" d="M 207.8125 141.847656 C 215.941406 124.347656 223.992188 107.070312 232.195312 89.351562 C 238.199219 93.085938 244.054688 96.746094 250.058594 100.480469 C 238.125 116.074219 226.484375 131.230469 214.84375 146.457031 C 212.574219 144.921875 210.304688 143.457031 207.8125 141.847656 Z M 207.8125 141.847656 " fill-opacity="1" fill-rule="nonzero"/><g clip-path="url(#06be7f55ec)"><path fill="#ffb200" d="M 181.457031 137.085938 C 178.746094 137.601562 176.183594 138.1875 173.476562 138.699219 C 167.839844 120.175781 162.128906 101.652344 156.34375 82.691406 C 163.007812 81.296875 169.667969 79.980469 176.625 78.589844 C 178.234375 98.355469 179.847656 117.613281 181.457031 137.085938 Z M 181.457031 137.085938 " fill-opacity="1" fill-rule="nonzero"/></g><g clip-path="url(#0bdb05f2fb)"><path fill="#ffb200" d="M 198.515625 138.625 C 195.953125 138.113281 193.464844 137.671875 190.683594 137.085938 C 192.144531 117.6875 193.683594 98.355469 195.222656 78.515625 C 202.03125 79.835938 208.691406 81.152344 215.5 82.46875 C 209.71875 101.433594 204.152344 120.027344 198.515625 138.625 Z M 198.515625 138.625 " fill-opacity="1" fill-rule="nonzero"/></g><path fill="#ffb200" d="M 227.800781 160.515625 C 226.042969 158.171875 224.433594 155.902344 222.601562 153.488281 C 236.292969 139.941406 249.984375 126.472656 263.894531 112.78125 C 266.164062 115.707031 268.363281 118.492188 270.484375 121.347656 C 272.753906 124.496094 272.535156 124.421875 270.484375 127.570312 C 268.433594 130.71875 266.824219 134.160156 264.992188 137.378906 C 264.773438 137.820312 264.480469 138.332031 264.042969 138.550781 C 252.253906 145.726562 240.394531 152.902344 228.605469 160.003906 C 228.386719 160.222656 228.09375 160.371094 227.800781 160.515625 Z M 227.800781 160.515625 " fill-opacity="1" fill-rule="nonzero"/><path fill="#ffb200" d="M 260.894531 157.660156 C 260.894531 162.054688 260.894531 166.078125 260.894531 170.179688 C 258.695312 170.691406 256.574219 170.839844 254.671875 171.570312 C 251.59375 172.816406 248.667969 174.425781 245.664062 175.890625 C 245.152344 176.109375 244.640625 176.476562 244.054688 176.550781 C 240.761719 177.136719 237.390625 177.648438 233.949219 178.234375 C 233.21875 175.597656 232.558594 172.890625 231.753906 170.105469 C 241.492188 166.007812 251.15625 161.90625 260.894531 157.660156 Z M 260.894531 157.660156 " fill-opacity="1" fill-rule="nonzero"/><g clip-path="url(#d1312ee360)"><path fill="#1b774b" d="M 280.222656 217.769531 C 282.273438 200.710938 274.804688 191.265625 263.601562 187.75 C 265.578125 189.65625 267.921875 191.703125 269.972656 194.121094 C 272.023438 196.535156 273.707031 199.246094 275.757812 202.101562 C 271.730469 202.027344 268.289062 201.003906 265.433594 198.660156 C 263.820312 197.34375 262.285156 195.804688 260.96875 194.121094 C 257.378906 189.65625 253.28125 185.921875 247.421875 184.601562 C 257.746094 176.988281 275.097656 179.40625 281.613281 193.753906 C 281.6875 192.804688 281.757812 192.144531 281.832031 191.484375 C 283.078125 181.308594 283.003906 171.132812 282.785156 160.953125 C 282.785156 159.929688 282.492188 159.34375 281.539062 158.757812 C 275.828125 155.097656 273.707031 149.535156 273.707031 143.019531 C 273.707031 142.210938 273.777344 141.40625 273.851562 140.382812 C 275.464844 142.359375 276.925781 144.117188 278.464844 145.945312 C 278.539062 145.871094 278.613281 145.871094 278.757812 145.800781 C 278.320312 144.554688 277.511719 143.238281 277.585938 141.992188 C 277.660156 139.285156 277.660156 136.355469 278.464844 133.792969 C 279.855469 129.621094 281.832031 125.667969 283.882812 121.640625 C 287.761719 129.398438 293.472656 136.722656 289.445312 146.457031 C 290.984375 144.480469 292.523438 142.503906 294.058594 140.601562 C 295.449219 147.117188 292.230469 155.246094 286.519531 158.683594 C 285.640625 159.269531 285.347656 159.785156 285.347656 160.734375 C 285.347656 168.570312 285.273438 176.328125 285.273438 184.164062 C 285.273438 189.070312 285.273438 193.972656 285.273438 198.804688 C 285.492188 198.804688 285.640625 198.878906 285.859375 198.878906 C 286.296875 198.074219 286.738281 197.269531 287.175781 196.464844 C 289.738281 191.851562 293.328125 188.265625 297.574219 185.261719 C 299.476562 183.945312 301.234375 182.480469 303.066406 181.015625 C 306.140625 178.527344 307.898438 175.230469 308.847656 171.496094 C 308.921875 171.203125 309.066406 170.910156 309.359375 170.105469 C 310.753906 182.039062 310.679688 193.386719 306.578125 204.296875 C 304.015625 211.105469 299.476562 216.085938 292.230469 218.136719 C 291.9375 218.207031 291.570312 218.28125 291.128906 218.425781 C 294.5 210.226562 295.523438 201.222656 301.089844 194.046875 C 300.867188 193.902344 300.722656 193.753906 300.503906 193.679688 C 298.378906 196.171875 296.109375 198.585938 294.132812 201.222656 C 289.886719 207.078125 287.835938 213.742188 287.46875 220.917969 C 286.882812 231.679688 286.664062 242.441406 286.007812 253.132812 C 285.199219 266.308594 284.101562 279.5625 283.152344 292.738281 C 283.152344 293.03125 283.003906 293.324219 282.710938 293.542969 C 282.566406 290.542969 282.417969 287.542969 282.273438 284.539062 C 281.6875 272.019531 281.171875 259.5 280.367188 246.980469 C 279.855469 239.441406 278.609375 231.972656 274.585938 225.238281 C 271.65625 220.332031 267.628906 216.523438 262.722656 213.375 C 268.507812 219.890625 270.703125 228.238281 274.585938 236 C 269.386719 235.339844 264.921875 233.289062 261.699219 229.410156 C 259.722656 227.066406 257.890625 224.359375 256.71875 221.503906 C 253.644531 214.253906 250.863281 206.933594 244.566406 201.515625 C 256.574219 198.511719 271.363281 205.101562 280.222656 217.769531 Z M 280.222656 217.769531 " fill-opacity="1" fill-rule="nonzero"/></g><g clip-path="url(#e6c9c39ba4)"><path fill="#1b774b" d="M 240.539062 210.667969 C 236.148438 210.082031 232.265625 209.496094 228.460938 209.054688 C 211.621094 207.007812 195 207.738281 178.675781 212.789062 C 177.648438 213.082031 176.40625 213.082031 175.453125 212.789062 C 161.6875 208.691406 147.707031 206.054688 133.429688 204.882812 C 121.714844 203.859375 109.925781 203.492188 98.214844 204.222656 C 87.304688 204.882812 76.6875 207.007812 66.21875 209.933594 C 65.632812 210.082031 65.121094 210.15625 64.242188 210.375 C 64.242188 209.347656 64.242188 208.46875 64.242188 207.59375 C 64.242188 198.878906 64.242188 190.09375 64.316406 181.382812 C 64.316406 180.722656 64.753906 179.992188 65.195312 179.476562 C 66 178.597656 67.023438 177.867188 67.828125 177.136719 C 71.78125 178.234375 71.710938 181.234375 71.34375 184.53125 C 75.371094 184.308594 79.25 184.164062 83.203125 183.945312 C 83.351562 182.1875 83.203125 180.355469 83.789062 178.746094 C 84.15625 177.722656 85.695312 177.0625 86.5 176.402344 C 90.304688 177.574219 90.378906 180.429688 89.792969 183.722656 C 93.964844 183.722656 97.847656 183.722656 102.019531 183.722656 C 101.507812 181.015625 101.945312 178.527344 105.535156 177.355469 C 106.339844 178.085938 107.878906 178.964844 108.460938 180.210938 C 109.046875 181.382812 108.609375 183.066406 108.609375 184.53125 C 112.5625 184.96875 116.222656 185.335938 120.105469 185.773438 C 120.105469 184.675781 120.03125 183.796875 120.105469 182.847656 C 120.175781 182.332031 120.398438 181.675781 120.835938 181.453125 C 121.714844 180.867188 123.179688 179.84375 123.691406 180.136719 C 125.15625 181.015625 126.914062 182.039062 126.472656 184.382812 C 126.328125 185.117188 126.472656 185.921875 126.472656 186.726562 C 129.695312 187.3125 132.769531 187.824219 135.84375 188.335938 C 138.40625 188.777344 138.40625 188.777344 138.40625 191.265625 C 138.40625 191.703125 138.40625 192.070312 138.40625 192.65625 C 134.378906 192.070312 130.5 191.484375 126.546875 190.898438 C 126.546875 194.195312 126.546875 197.195312 126.546875 200.269531 C 130.648438 201.003906 134.671875 201.734375 138.699219 202.46875 C 141.261719 202.980469 143.75 203.636719 146.3125 204.152344 C 147.191406 204.296875 148.21875 204.296875 149.023438 204.003906 C 163.957031 198.804688 179.40625 196.390625 195.148438 197.195312 C 208.253906 197.929688 221.066406 200.199219 233.367188 204.882812 C 236.21875 206.054688 238.050781 208.25 240.539062 210.667969 Z M 71.417969 188.777344 C 71.417969 192.65625 71.417969 196.316406 71.417969 199.976562 C 75.371094 199.539062 79.25 199.171875 83.132812 198.734375 C 83.132812 195.21875 83.132812 191.777344 83.132812 188.191406 C 79.25 188.410156 75.445312 188.554688 71.417969 188.777344 Z M 101.875 188.335938 C 97.847656 188.335938 93.964844 188.335938 90.011719 188.335938 C 90.011719 191.484375 90.011719 194.78125 90.011719 198.074219 C 94.039062 198.074219 97.921875 198.074219 101.875 198.074219 C 101.875 194.851562 101.875 191.777344 101.875 188.335938 Z M 108.609375 198.511719 C 112.488281 198.804688 116.148438 199.097656 119.957031 199.390625 C 119.957031 196.171875 119.957031 193.242188 119.957031 190.019531 C 116.148438 189.582031 112.488281 189.214844 108.609375 188.777344 C 108.609375 192.144531 108.609375 195.21875 108.609375 198.511719 Z M 108.609375 198.511719 " fill-opacity="1" fill-rule="nonzero"/></g><path fill="#1b774b" d="M 142.433594 288.199219 C 162.054688 245.882812 210.667969 231.167969 242.738281 245.445312 C 238.125 246.101562 233.292969 246.542969 228.535156 247.566406 C 202.03125 253.203125 182.335938 267.992188 169.523438 291.859375 C 168.9375 292.960938 168.570312 294.644531 167.621094 295.082031 C 166.667969 295.523438 165.128906 294.863281 163.886719 294.570312 C 156.636719 292.960938 149.460938 291.054688 142.433594 288.199219 Z M 142.433594 288.199219 " fill-opacity="1" fill-rule="nonzero"/><path fill="#1b774b" d="M 217.257812 235.488281 C 179.554688 234.753906 152.902344 252.324219 134.964844 284.613281 C 132.402344 284.101562 117.175781 274.582031 114.320312 271.582031 C 125.15625 254.523438 139.796875 242.296875 159.054688 235.925781 C 178.382812 229.484375 197.785156 228.605469 217.257812 235.488281 Z M 217.257812 235.488281 " fill-opacity="1" fill-rule="nonzero"/><path fill="#1b774b" d="M 90.085938 246.835938 C 120.542969 222.453125 153.929688 215.351562 190.976562 226.261719 C 174.722656 225.675781 158.980469 228.3125 144.117188 235.195312 C 129.109375 242.074219 117.25 252.765625 106.851562 266.164062 C 101.214844 259.648438 95.796875 253.351562 90.085938 246.835938 Z M 90.085938 246.835938 " fill-opacity="1" fill-rule="nonzero"/><path fill="#1b774b" d="M 84.742188 238.5625 C 80.789062 231.386719 77.859375 223.992188 75.515625 216.011719 C 102.898438 208.105469 129.914062 209.054688 156.929688 217.109375 C 130.648438 216.230469 106.851562 223.992188 84.742188 238.5625 Z M 84.742188 238.5625 " fill-opacity="1" fill-rule="nonzero"/><path fill="#1b774b" d="M 189.582031 216.085938 C 193.316406 215.5 197.050781 214.695312 200.859375 214.328125 C 214.550781 212.9375 228.09375 214.035156 241.417969 217.769531 C 244.054688 218.5 245.8125 219.527344 246.617188 222.527344 C 248.375 228.898438 251.523438 234.535156 257.085938 238.488281 C 258.695312 239.585938 260.382812 240.539062 262.136719 241.636719 C 261.773438 242.589844 261.332031 243.613281 260.894531 244.710938 C 237.613281 234.167969 214.402344 223.480469 189.65625 216.671875 C 189.582031 216.449219 189.582031 216.230469 189.582031 216.085938 Z M 189.582031 216.085938 " fill-opacity="1" fill-rule="nonzero"/><path fill="#1b774b" d="M 234.828125 285.492188 C 232.78125 279.78125 233 274.289062 234.757812 268.871094 C 234.902344 268.433594 235.636719 267.921875 236.148438 267.921875 C 242.882812 267.40625 249.105469 268.796875 254.816406 272.972656 C 248.667969 277.878906 242.078125 281.902344 234.828125 285.492188 Z M 234.828125 285.492188 " fill-opacity="1" fill-rule="nonzero"/><path fill="#1b774b" d="M 231.679688 287.027344 C 228.460938 288.347656 225.238281 289.738281 221.945312 290.984375 C 221.578125 291.128906 220.847656 290.761719 220.480469 290.398438 C 216.234375 287.027344 213.304688 282.78125 211.988281 277.292969 C 215.648438 275.242188 219.675781 274.800781 223.847656 275.316406 C 224.507812 275.386719 225.164062 275.535156 225.75 275.679688 C 230.289062 276.851562 230.21875 276.851562 230.65625 281.464844 C 230.804688 283.296875 231.316406 285.050781 231.679688 287.027344 Z M 231.679688 287.027344 " fill-opacity="1" fill-rule="nonzero"/><path fill="#1b774b" d="M 195.441406 290.984375 C 199.175781 285.859375 203.933594 283.585938 209.9375 284.171875 C 210.597656 284.246094 211.472656 284.832031 211.839844 285.417969 C 213.453125 287.761719 214.84375 290.175781 216.527344 292.886719 C 211.765625 293.765625 206.933594 294.644531 202.03125 295.449219 C 201.515625 295.523438 200.785156 295.082031 200.273438 294.789062 C 198.660156 293.542969 197.125 292.300781 195.441406 290.984375 Z M 195.441406 290.984375 " fill-opacity="1" fill-rule="nonzero"/><path fill="#1b774b" d="M 257.746094 270.628906 C 256.941406 261.917969 258.625 254.300781 262.503906 246.835938 C 265.507812 249.984375 268.363281 252.984375 271.4375 256.277344 C 266.898438 261.039062 262.503906 265.652344 257.746094 270.628906 Z M 257.746094 270.628906 " fill-opacity="1" fill-rule="nonzero"/><path fill="#1b774b" d="M 245.152344 247.199219 C 249.398438 250.640625 252.988281 254.230469 255.109375 258.839844 C 255.550781 259.867188 255.695312 261.109375 255.695312 262.210938 C 255.621094 264.773438 255.402344 267.261719 255.257812 269.605469 C 252.765625 268.578125 250.132812 267.554688 247.570312 266.457031 C 247.203125 266.308594 246.835938 265.871094 246.761719 265.429688 C 245.300781 259.574219 244.933594 253.644531 245.152344 247.199219 Z M 245.152344 247.199219 " fill-opacity="1" fill-rule="nonzero"/><path fill="#1b774b" d="M 230.511719 275.09375 C 228.386719 274.507812 226.191406 273.996094 224.066406 273.339844 C 223.335938 273.117188 222.601562 272.53125 222.238281 271.875 C 219.308594 266.820312 217.625 261.332031 216.234375 255.695312 C 216.378906 255.546875 216.527344 255.402344 216.597656 255.179688 C 219.160156 256.863281 221.945312 258.257812 224.214844 260.234375 C 226.335938 262.136719 227.949219 264.550781 229.851562 266.75 C 232.121094 269.457031 231.753906 272.3125 230.511719 275.09375 Z M 230.511719 275.09375 " fill-opacity="1" fill-rule="nonzero"/><g clip-path="url(#c3dc8a085f)"><path fill="#1b774b" d="M 176.113281 296.472656 C 178.234375 290.25 181.824219 285.34375 186.140625 280.21875 C 185.921875 287.980469 190.167969 292.519531 196.097656 296.035156 C 196.027344 296.179688 196.027344 296.328125 195.953125 296.472656 C 189.4375 296.472656 182.921875 296.472656 176.113281 296.472656 Z M 176.113281 296.472656 " fill-opacity="1" fill-rule="nonzero"/></g><path fill="#1b774b" d="M 204.007812 264.039062 C 208.398438 267.335938 213.523438 269.164062 216.304688 273.921875 C 214.695312 274.730469 213.160156 275.609375 211.546875 276.265625 C 210.523438 276.707031 210.304688 277.363281 210.523438 278.390625 C 210.742188 279.632812 210.890625 280.804688 211.109375 282.125 C 209.058594 282.269531 207.519531 282.050781 206.128906 280.074219 C 202.542969 275.167969 202.46875 269.898438 204.007812 264.039062 Z M 204.007812 264.039062 " fill-opacity="1" fill-rule="nonzero"/><path fill="#1b774b" d="M 230.21875 250.933594 C 236.074219 254.742188 240.394531 259.5 243.03125 265.871094 C 239.515625 266.308594 236 265.652344 233.144531 268.066406 C 231.535156 265.285156 230.363281 258.621094 230.21875 250.933594 Z M 230.21875 250.933594 " fill-opacity="1" fill-rule="nonzero"/><path fill="#1b774b" d="M 193.464844 290.398438 C 190.023438 288.566406 187.535156 283.878906 187.828125 278.753906 C 192.878906 278.902344 197.492188 280.148438 200.492188 283.148438 C 198.148438 285.566406 195.878906 287.90625 193.464844 290.398438 Z M 193.464844 290.398438 " fill-opacity="1" fill-rule="nonzero"/><path fill="#1b774b" d="M 270.117188 157.515625 C 272.386719 159.199219 274.804688 161.101562 277.367188 162.785156 C 280.515625 164.835938 281.90625 167.835938 282.273438 171.425781 C 274.4375 171.425781 269.53125 165.640625 270.117188 157.515625 Z M 270.117188 157.515625 " fill-opacity="1" fill-rule="nonzero"/><path fill="#1b774b" d="M 297.941406 157.515625 C 298.085938 166.445312 293.765625 171.058594 285.933594 171.570312 C 286.296875 167.765625 287.835938 164.6875 291.132812 162.492188 C 293.546875 160.953125 295.742188 159.125 297.941406 157.515625 Z M 297.941406 157.515625 " fill-opacity="1" fill-rule="nonzero"/><path fill="#1b774b" d="M 269.753906 169.59375 C 272.09375 171.203125 274.511719 172.890625 276.925781 174.5 C 280.074219 176.550781 281.539062 179.476562 282.050781 183.140625 C 273.851562 181.96875 269.898438 177.5 269.753906 169.59375 Z M 269.753906 169.59375 " fill-opacity="1" fill-rule="nonzero"/><path fill="#1b774b" d="M 298.453125 169.59375 C 297.574219 178.234375 293.914062 182.773438 286.078125 182.917969 C 286.589844 178.890625 288.714844 176.035156 292.230469 173.988281 C 294.425781 172.667969 296.476562 171.058594 298.453125 169.59375 Z M 298.453125 169.59375 " fill-opacity="1" fill-rule="nonzero"/><path fill="#1b774b" d="M 201.445312 266.234375 C 201.445312 270.117188 201.445312 273.703125 201.445312 277.144531 C 199.6875 276.558594 197.636719 275.902344 195.222656 275.167969 C 195.441406 275.386719 195.367188 275.316406 195.292969 275.242188 C 193.976562 272.3125 195.222656 270.335938 197.785156 268.871094 C 199.027344 268.140625 200.125 267.1875 201.445312 266.234375 Z M 201.445312 266.234375 " fill-opacity="1" fill-rule="nonzero"/><path fill="#ffb200" d="M 233.511719 193.972656 C 233.585938 193.167969 233.730469 192.363281 233.878906 191.410156 C 236.21875 191.703125 238.492188 191.925781 240.6875 192.144531 C 238.417969 193.535156 236.511719 195.878906 233.511719 193.972656 Z M 233.511719 193.972656 " fill-opacity="1" fill-rule="nonzero"/></svg>